<?xml version="1.0" standalone="no"?>
<!DOCTYPE svg PUBLIC "-//W3C//DTD SVG 20010904//EN"
 "http://www.w3.org/TR/2001/REC-SVG-20010904/DTD/svg10.dtd">
<svg version="1.0" xmlns="http://www.w3.org/2000/svg"
 width="1254.000000pt" height="1254.000000pt" viewBox="0 0 1254.000000 1254.000000"
 preserveAspectRatio="xMidYMid meet">

<g transform="translate(0.000000,1254.000000) scale(0.100000,-0.100000)"
fill="#000000" stroke="none">
<path d="M6184 11146 l-34 -34 0 -176 0 -176 -160 0 c-188 0 -222 -9 -246 -65
-20 -49 -10 -99 28 -130 29 -25 33 -25 204 -25 l174 0 0 -324 0 -324 -152
-128 c-84 -71 -214 -181 -288 -244 -74 -64 -218 -185 -319 -270 -463 -389
-532 -447 -1156 -976 -148 -126 -276 -242 -283 -258 -40 -81 61 -187 139 -146
12 7 106 83 207 169 256 215 455 383 897 755 209 176 499 422 645 546 420 357
417 355 437 339 10 -8 162 -133 338 -279 176 -146 399 -331 495 -410 165 -136
487 -403 875 -725 430 -357 476 -394 505 -400 39 -9 87 19 114 64 15 27 17 40
10 70 -10 39 -23 50 -790 686 -324 269 -1107 918 -1316 1093 l-138 114 0 324
0 324 174 0 c160 0 175 2 199 21 64 50 53 155 -18 185 -29 12 -71 14 -195 12
l-159 -3 -3 183 -3 184 -33 29 c-47 43 -102 41 -148 -5z"/>
<path d="M6425 8568 c-47 -25 -45 12 -45 -1005 0 -530 -2 -963 -4 -963 -2 0
-24 11 -49 25 -142 80 -378 66 -544 -31 -81 -47 -175 -149 -216 -234 -78 -165
-71 -320 21 -459 130 -196 429 -243 687 -108 89 47 194 156 239 247 66 137 66
125 66 1019 l0 804 23 -20 c12 -11 90 -66 174 -122 98 -65 170 -122 203 -159
179 -200 186 -497 18 -775 -36 -59 -39 -71 -30 -92 9 -18 19 -25 41 -25 22 0
41 14 87 63 145 156 224 365 224 590 0 130 -24 230 -84 352 -59 120 -144 218
-308 352 -73 61 -160 138 -193 172 -68 70 -145 194 -176 288 -16 49 -27 67
-49 78 -34 18 -57 19 -85 3z"/>
<path d="M8013 8145 c-66 -28 -63 31 -63 -1070 0 -939 1 -996 18 -1002 20 -9
338 -10 502 -3 84 4 124 1 147 -9 35 -14 32 -10 260 -416 50 -88 140 -248 201
-355 204 -361 222 -395 213 -398 -5 -2 -58 8 -117 22 -312 71 -602 125 -874
162 -261 35 -624 44 -810 20 -322 -43 -599 -140 -822 -288 -110 -73 -256 -216
-318 -310 -44 -68 -44 -68 -91 -68 -46 0 -47 0 -88 64 -84 129 -298 308 -473
397 -500 253 -1081 274 -2058 72 -41 -8 -146 -30 -232 -48 -87 -18 -158 -30
-158 -26 0 3 37 72 83 152 45 80 188 333 317 562 157 278 242 419 257 426 12
6 134 15 270 21 137 5 297 12 357 14 205 9 438 -21 599 -75 70 -24 91 -28 103
-18 22 18 17 36 -26 83 -83 90 -265 158 -478 179 l-122 11 0 914 c0 795 -2
917 -15 942 -19 36 -43 50 -90 50 -46 0 -81 -23 -94 -62 -8 -21 -11 -317 -11
-939 l0 -909 -77 -1 c-43 0 -169 -4 -280 -8 -168 -7 -209 -12 -239 -28 -40
-20 -56 -46 -439 -723 -98 -173 -222 -391 -275 -485 -165 -290 -174 -308 -166
-338 14 -56 29 -55 342 21 883 216 1392 277 1823 217 450 -63 851 -276 1057
-561 20 -27 26 -29 103 -32 l83 -4 41 48 c197 229 398 366 680 463 242 83 448
116 737 115 393 -1 838 -75 1588 -264 89 -22 174 -40 190 -40 34 0 62 27 62
59 0 20 -140 277 -280 516 -54 91 -303 530 -438 770 -145 259 -154 267 -304
286 -72 9 -103 7 -208 -10 -81 -14 -142 -18 -181 -14 l-59 6 0 914 c0 972 0
967 -47 991 -35 18 -68 21 -100 7z"/>
<path d="M7520 5565 c-408 -57 -781 -229 -1026 -473 -88 -87 -168 -192 -211
-277 -23 -44 -27 -48 -37 -32 -140 233 -335 416 -586 550 -193 103 -444 182
-668 212 -209 28 -610 12 -671 -27 -39 -24 -46 -91 -12 -122 23 -21 34 -21
237 -6 705 52 1346 -249 1668 -782 12 -20 25 -28 45 -28 25 0 34 9 75 83 182
323 540 573 979 687 194 49 330 63 567 56 113 -3 233 -9 266 -12 54 -5 64 -4
83 15 29 29 28 81 -3 110 -35 33 -162 51 -401 56 -142 3 -230 0 -305 -10z"/>
<path d="M7529 4700 c-272 -21 -535 -85 -746 -180 -153 -70 -293 -187 -349
-294 -22 -42 -35 -56 -57 -60 -48 -10 -227 -7 -247 4 -10 5 -32 34 -48 63
-167 297 -786 499 -1398 457 -367 -25 -632 -73 -1464 -264 -107 -24 -235 -54
-285 -65 -110 -25 -149 -45 -175 -86 -27 -44 -25 -87 6 -124 36 -43 62 -41
337 25 790 189 1212 269 1565 295 378 28 793 -41 1046 -174 111 -59 160 -106
206 -196 41 -81 78 -123 123 -140 17 -7 108 -11 220 -11 260 1 270 5 345 162
41 85 99 136 217 194 334 162 742 213 1245 158 291 -32 875 -149 1385 -278
122 -31 231 -56 243 -56 31 0 78 25 86 45 3 9 6 34 6 55 0 39 -32 90 -69 109
-23 13 -753 184 -1011 237 -508 106 -895 146 -1181 124z"/>
<path d="M2981 3530 c-115 -25 -235 -109 -281 -199 -79 -157 -60 -362 46 -480
132 -146 398 -168 558 -46 38 29 68 107 48 127 -8 8 -24 -3 -57 -40 -56 -62
-113 -86 -204 -86 -190 0 -314 183 -281 414 22 155 106 245 239 257 107 10
200 -37 241 -121 14 -31 28 -46 41 -46 16 0 19 7 18 43 0 23 -4 64 -7 92 l-7
49 -60 19 c-70 21 -230 30 -294 17z"/>
<path d="M3948 3533 l-36 -4 -50 -132 c-146 -380 -225 -574 -244 -594 -12 -13
-30 -23 -40 -23 -11 0 -18 -7 -18 -20 0 -19 7 -20 115 -20 104 0 115 2 115 18
0 12 -11 21 -32 27 -18 6 -34 17 -36 26 -2 9 11 55 29 102 l31 87 138 0 138 0
18 -47 c9 -27 23 -63 31 -82 22 -57 17 -79 -19 -89 -18 -4 -33 -15 -33 -23 0
-11 27 -15 148 -17 142 -2 147 -2 147 18 0 12 -7 20 -17 20 -43 0 -50 16 -299
670 -17 46 -36 85 -40 85 -5 1 -25 0 -46 -2z m30 -315 c29 -79 52 -146 52
-150 0 -12 -220 -10 -220 2 0 5 13 42 28 82 16 40 39 103 52 141 13 37 26 67
30 67 3 0 29 -64 58 -142z"/>
<path d="M6760 3525 c-202 -57 -326 -255 -291 -467 23 -140 91 -235 209 -291
64 -30 73 -32 187 -32 102 0 129 4 177 23 84 34 160 107 205 200 37 74 38 79
38 186 0 104 -2 115 -32 178 -39 83 -97 142 -179 180 -54 25 -79 31 -162 34
-68 3 -113 -1 -152 -11z m220 -73 c63 -32 112 -97 137 -181 26 -84 23 -249 -6
-321 -47 -116 -109 -160 -222 -160 -75 0 -129 22 -176 71 -132 140 -127 469
10 573 47 36 74 45 143 45 49 1 73 -5 114 -27z"/>
<path d="M8783 3533 c-18 -2 -37 -12 -42 -21 -5 -9 -62 -154 -126 -321 -158
-409 -148 -389 -190 -407 -19 -8 -35 -21 -35 -29 0 -12 21 -15 121 -15 108 0
120 2 117 17 -2 9 -18 21 -36 25 -28 8 -32 13 -31 41 0 18 13 64 28 102 l27
70 139 0 138 0 34 -93 c37 -101 35 -122 -13 -122 -17 0 -24 -6 -24 -20 0 -19
7 -20 145 -20 138 0 145 1 145 20 0 11 -6 20 -14 20 -38 0 -60 46 -194 394
-75 198 -141 360 -147 361 -5 1 -25 0 -42 -2z m26 -308 c27 -72 52 -138 56
-147 7 -17 -2 -18 -110 -18 -108 0 -117 1 -110 18 3 9 25 67 47 127 22 61 45
121 50 134 5 13 11 22 13 19 2 -2 26 -62 54 -133z"/>
<path d="M4545 3522 c-8 -8 8 -32 22 -32 7 0 25 -11 38 -25 l25 -24 0 -300 c0
-329 -3 -346 -54 -359 -17 -5 -31 -15 -31 -23 0 -11 24 -15 123 -17 112 -2
123 -1 120 14 -2 10 -16 21 -33 26 -54 14 -55 19 -55 307 l1 266 22 -26 c12
-15 123 -152 246 -305 218 -271 226 -279 263 -282 l38 -3 0 343 c0 367 2 381
50 405 14 7 25 18 25 25 0 10 -26 12 -110 11 -118 -3 -134 -11 -75 -41 34 -17
35 -19 41 -92 8 -98 11 -420 3 -420 -8 0 -44 44 -362 440 -47 58 -87 107 -89
110 -5 6 -202 7 -208 2z"/>
<path d="M5564 3521 c-2 -2 -4 -46 -4 -98 0 -84 2 -93 18 -93 13 0 22 12 30
39 23 75 73 101 200 101 l32 0 0 -328 c0 -301 -2 -330 -17 -344 -10 -9 -27
-18 -38 -20 -11 -2 -21 -11 -23 -21 -3 -16 8 -17 150 -15 128 3 153 5 153 18
0 9 -11 16 -28 18 -56 7 -58 18 -55 368 l3 319 60 -2 c123 -5 143 -16 168 -89
8 -21 21 -40 30 -42 15 -3 17 9 17 95 l0 98 -346 0 c-190 0 -348 -2 -350 -4z"/>
<path d="M7510 3508 c0 -11 8 -18 18 -18 11 0 26 -8 35 -18 15 -17 17 -55 17
-340 0 -278 -2 -323 -16 -336 -8 -9 -24 -16 -35 -16 -12 0 -19 -7 -19 -20 0
-19 7 -20 146 -20 133 0 145 1 142 18 -2 9 -13 18 -26 20 -43 6 -52 36 -52
179 l0 133 49 0 48 0 94 -156 c62 -103 104 -163 124 -175 23 -15 49 -19 113
-19 75 0 82 2 82 20 0 11 -6 20 -14 20 -29 0 -71 48 -158 178 -50 75 -92 141
-94 147 -3 6 8 17 23 24 94 42 143 109 143 194 0 62 -19 105 -63 144 -55 48
-98 55 -340 57 -200 1 -217 0 -217 -16z m389 -56 c58 -29 76 -63 76 -142 0
-54 -4 -74 -21 -96 -40 -54 -68 -67 -154 -72 l-80 -5 0 167 0 166 73 0 c49 0
83 -6 106 -18z"/>
<path d="M9384 3521 c-11 -11 -1 -22 31 -35 25 -11 35 -21 36 -38 6 -205 9
-573 4 -606 -6 -38 -11 -46 -41 -58 -20 -8 -34 -20 -31 -27 3 -9 75 -12 288
-12 l284 0 13 89 c18 119 4 133 -51 49 -43 -67 -64 -76 -189 -81 -76 -3 -113
-1 -121 7 -15 15 -19 574 -5 634 7 31 14 39 39 44 19 3 29 11 27 20 -2 12 -30
15 -141 16 -76 1 -141 0 -143 -2z"/>
<path d="M6062 2335 c0 -16 2 -22 5 -12 2 9 2 23 0 30 -3 6 -5 -1 -5 -18z"/>
<path d="M6324 2175 c0 -49 1 -71 3 -48 2 23 2 64 0 90 -2 26 -3 8 -3 -42z"/>
<path d="M2660 2210 c0 -17 6 -20 38 -18 36 1 36 1 5 5 -18 2 -33 8 -33 13 0
5 15 11 33 13 31 4 31 4 -5 5 -32 2 -38 -1 -38 -18z"/>
<path d="M2768 2223 c7 -3 16 -2 19 1 4 3 -2 6 -13 5 -11 0 -14 -3 -6 -6z"/>
<path d="M3018 2223 c122 -2 322 -2 445 0 122 1 22 2 -223 2 -245 0 -345 -1
-222 -2z"/>
<path d="M3778 2223 c18 -2 45 -2 60 0 15 2 0 4 -33 4 -33 0 -45 -2 -27 -4z"/>
<path d="M4228 2223 c67 -2 177 -2 245 0 67 1 12 3 -123 3 -135 0 -190 -2
-122 -3z"/>
<path d="M4987 2223 c145 -2 381 -2 526 0 144 1 26 2 -263 2 -289 0 -407 -1
-263 -2z"/>
<path d="M6873 2223 c65 -2 168 -2 230 0 62 1 9 3 -118 3 -126 0 -177 -2 -112
-3z"/>
<path d="M7318 2223 c29 -2 74 -2 100 0 26 2 2 3 -53 3 -55 0 -76 -1 -47 -3z"/>
<path d="M7668 2223 c101 -2 263 -2 360 0 97 1 15 2 -183 2 -198 0 -278 -1
-177 -2z"/>
<path d="M8443 2223 c130 -2 344 -2 475 0 130 1 23 2 -238 2 -261 0 -368 -1
-237 -2z"/>
<path d="M9253 2223 c26 -2 67 -2 90 0 23 2 2 3 -48 3 -49 0 -68 -1 -42 -3z"/>
<path d="M9538 2223 c78 -2 206 -2 285 0 78 1 14 3 -143 3 -157 0 -221 -2
-142 -3z"/>
<path d="M9905 2200 l-50 -7 53 -1 c29 -1 52 2 52 8 0 6 -1 9 -2 8 -2 0 -25
-4 -53 -8z"/>
<path d="M2882 2193 c59 -2 158 -2 220 0 62 1 14 3 -107 3 -121 0 -172 -2
-113 -3z"/>
<path d="M3258 2193 c12 -2 32 -2 45 0 12 2 2 4 -23 4 -25 0 -35 -2 -22 -4z"/>
<path d="M3348 2193 c7 -3 16 -2 19 1 4 3 -2 6 -13 5 -11 0 -14 -3 -6 -6z"/>
<path d="M3413 2193 c15 -2 39 -2 55 0 15 2 2 4 -28 4 -30 0 -43 -2 -27 -4z"/>
<path d="M3597 2193 c18 -2 50 -2 70 0 21 2 7 4 -32 4 -38 0 -55 -2 -38 -4z"/>
<path d="M3758 2193 c12 -2 32 -2 45 0 12 2 2 4 -23 4 -25 0 -35 -2 -22 -4z"/>
<path d="M3928 2193 c34 -2 88 -2 120 0 31 2 3 3 -63 3 -66 0 -92 -1 -57 -3z"/>
<path d="M4238 2193 c7 -3 16 -2 19 1 4 3 -2 6 -13 5 -11 0 -14 -3 -6 -6z"/>
<path d="M4353 2193 c48 -2 126 -2 175 0 48 1 8 3 -88 3 -96 0 -136 -2 -87 -3z"/>
<path d="M4713 2193 c9 -2 23 -2 30 0 6 3 -1 5 -18 5 -16 0 -22 -2 -12 -5z"/>
<path d="M5018 2193 c45 -2 119 -2 165 0 45 1 8 3 -83 3 -91 0 -128 -2 -82 -3z"/>
<path d="M5398 2193 c72 -2 192 -2 265 0 72 1 13 3 -133 3 -146 0 -205 -2
-132 -3z"/>
<path d="M6963 2193 c130 -2 344 -2 475 0 130 1 23 2 -238 2 -261 0 -368 -1
-237 -2z"/>
<path d="M7808 2193 c72 -2 192 -2 265 0 72 1 13 3 -133 3 -146 0 -205 -2
-132 -3z"/>
<path d="M8273 2193 c37 -2 96 -2 130 0 34 2 4 3 -68 3 -71 0 -99 -1 -62 -3z"/>
<path d="M8528 2193 c23 -2 59 -2 80 0 20 2 1 4 -43 4 -44 0 -61 -2 -37 -4z"/>
<path d="M8833 2193 c71 -2 183 -2 250 0 67 1 10 3 -128 3 -137 0 -192 -2
-122 -3z"/>
<path d="M9218 2193 c7 -3 16 -2 19 1 4 3 -2 6 -13 5 -11 0 -14 -3 -6 -6z"/>
<path d="M9348 2193 c12 -2 30 -2 40 0 9 3 -1 5 -23 4 -22 0 -30 -2 -17 -4z"/>
<path d="M9538 2193 c50 -2 134 -2 185 0 50 1 9 3 -93 3 -102 0 -143 -2 -92
-3z"/>
<path d="M7312 1785 c-16 -34 -15 -35 6 -35 10 0 28 14 40 30 l23 30 -29 0
c-21 0 -32 -7 -40 -25z"/>
<path d="M3415 1706 c-85 -38 -117 -132 -75 -224 22 -50 79 -81 145 -82 65 0
131 53 95 75 -6 4 -25 -3 -44 -14 -40 -25 -69 -26 -106 -4 -62 36 -75 131 -25
183 24 25 37 30 74 30 28 0 51 -6 63 -17 17 -15 20 -15 34 -1 45 45 -85 88
-161 54z"/>
<path d="M3786 1577 c-30 -78 -58 -150 -62 -159 -5 -14 -1 -18 19 -18 20 0 28
8 41 40 l16 40 64 0 64 0 19 -37 c18 -38 64 -60 62 -31 0 7 -26 78 -58 158
-53 132 -60 145 -84 147 -24 2 -29 -6 -81 -140z m108 9 c9 -27 16 -53 16 -58
0 -4 -21 -8 -46 -8 -33 0 -45 4 -42 13 3 6 13 36 23 65 11 28 22 49 26 45 3
-5 14 -30 23 -57z"/>
<path d="M4188 1712 c-16 -3 -18 -19 -18 -157 0 -139 2 -153 18 -151 15 1 18
16 22 116 l5 115 79 -110 c84 -117 91 -125 119 -125 15 0 17 14 17 155 l0 155
-25 0 c-24 0 -24 -1 -27 -106 l-3 -106 -75 105 c-78 110 -84 116 -112 109z"/>
<path d="M4594 1711 c-2 -2 -4 -13 -4 -23 0 -15 8 -18 45 -18 36 0 45 -4 46
-17 1 -10 4 -70 8 -133 6 -106 8 -115 26 -115 19 0 20 8 23 133 l3 132 44 0
c47 0 56 6 46 30 -5 12 -28 15 -119 15 -63 0 -116 -2 -118 -4z"/>
<path d="M5055 1706 c-86 -37 -122 -161 -69 -241 21 -32 87 -65 131 -65 56 0
124 38 145 80 25 49 23 124 -3 167 -39 63 -133 90 -204 59z m132 -53 c13 -9
28 -33 35 -54 31 -105 -65 -194 -153 -142 -60 36 -73 119 -27 178 36 47 91 53
145 18z"/>
<path d="M5479 1705 c-29 -16 -47 -56 -41 -91 5 -31 34 -54 94 -74 59 -19 79
-41 62 -67 -21 -33 -62 -40 -104 -16 -38 20 -60 16 -60 -13 0 -19 64 -44 115
-44 60 0 105 40 105 92 0 44 -28 71 -100 95 -50 16 -55 21 -55 48 0 41 38 55
85 31 25 -12 36 -13 46 -5 22 18 17 29 -21 45 -43 18 -92 17 -126 -1z"/>
<path d="M6102 1703 c-99 -49 -111 -210 -20 -277 41 -30 133 -33 176 -7 35 23
39 33 18 50 -11 9 -22 7 -51 -10 -32 -19 -41 -20 -76 -10 -99 30 -104 183 -7
219 34 13 41 13 80 -7 36 -18 45 -19 56 -7 18 18 11 30 -32 50 -43 20 -102 20
-144 -1z"/>
<path d="M6532 1706 c-6 -10 -122 -298 -122 -303 0 -2 12 -3 26 -3 21 0 29 8
41 40 l16 40 66 0 66 0 17 -40 c12 -28 23 -40 37 -40 12 0 21 6 21 13 0 6 -26
77 -58 156 -49 125 -60 145 -80 146 -13 1 -26 -3 -30 -9z m54 -123 c13 -32 24
-59 24 -60 0 -2 -23 -3 -51 -3 -37 0 -50 4 -46 13 2 6 13 35 23 64 10 29 20
50 23 48 2 -3 14 -31 27 -62z"/>
<path d="M6908 1712 c-110 -2 -118 -4 -118 -22 0 -17 7 -20 50 -20 l50 0 0
-136 c0 -135 0 -135 23 -132 21 3 22 7 25 136 l3 132 49 0 c43 0 50 3 50 19 0
11 -3 21 -7 23 -5 2 -61 2 -125 0z"/>
<path d="M7240 1701 c-54 -28 -80 -74 -80 -141 0 -95 62 -160 155 -160 93 0
155 65 155 160 0 94 -64 160 -155 160 -22 0 -56 -8 -75 -19z m114 -35 c46 -19
66 -51 66 -108 0 -91 -85 -144 -158 -98 -74 46 -68 171 11 205 40 18 41 18 81
1z"/>
<path d="M7984 1706 c-2 -6 -3 -77 -2 -156 l3 -145 25 0 25 0 1 130 c1 72 -1
140 -3 152 -5 24 -42 38 -49 19z"/>
<path d="M8290 1701 c-54 -28 -80 -74 -80 -140 0 -66 23 -111 72 -141 40 -24
107 -26 154 -4 43 21 50 32 32 51 -13 12 -19 11 -52 -8 -33 -19 -42 -20 -75
-10 -52 15 -73 42 -78 98 -5 62 21 106 72 123 31 10 41 9 75 -7 25 -13 44 -17
54 -11 25 14 19 26 -24 48 -49 25 -105 26 -150 1z"/>
<path d="M8696 1698 c-105 -62 -102 -227 4 -280 75 -38 162 -15 214 55 29 39
29 135 0 173 -35 47 -70 67 -126 71 -42 3 -61 -1 -92 -19z m148 -47 c55 -47
53 -137 -5 -185 -35 -30 -67 -33 -109 -11 -55 28 -73 94 -45 161 25 60 109 79
159 35z"/>
<path d="M9144 1710 c-51 -20 -72 -101 -36 -133 10 -10 41 -24 68 -33 62 -21
74 -31 74 -60 0 -45 -78 -57 -122 -18 -14 14 -20 14 -33 4 -22 -18 -19 -28 18
-50 56 -35 164 -19 181 25 9 25 7 74 -4 95 -6 11 -37 29 -70 41 -33 12 -65 28
-71 35 -15 19 -5 42 26 56 21 9 32 8 61 -5 37 -18 54 -15 54 8 0 34 -94 56
-146 35z"/>
<path d="M7640 1554 l0 -155 93 5 c83 4 92 7 95 25 3 20 -1 21 -67 21 l-71 0
0 130 0 130 -25 0 -25 0 0 -156z"/>
</g>
</svg>
